# xmcd
#
# Track frame offsets:
#  150
#  15385
#  40170
#  56412
#
# Disc length: 1084 seconds
#
# Revision: 0
# Processed by: cddbd v1.5.1PL0 Copyright (c) Steve Scherf et al.
# Submitted via: Collectorz.com Music Collector 6.9
#
DISCID=24043a04
DTITLE=Various Artist - The Anger Management Tour CD Sampler
DYEAR=2000
DGENRE=
TTITLE0=Papa Roach - Last Resort
TTITLE1=D-12 - Shit On You (clean version)
TTITLE2=Limp Bizkit - Rollin'
TTITLE3=Eminem - Stan (radio version)
EXTD=
EXTT0=
EXTT1=
EXTT2=
EXTT3=
PLAYORDER=
